HIERARCHY
ROOT Hips
{
	OFFSET 0.000000 103.266502 0.000000
	CHANNELS 6 Xposition Yposition Zposition Xrotation Yrotation Zrotation 
	JOINT Spine
	{
		OFFSET -0.002400 12.777504 0.315300
		CHANNELS 3 Xrotation Yrotation Zrotation
		JOINT Spine1
		{
			OFFSET -0.002067 5.816869 0.032633
			CHANNELS 3 Xrotation Yrotation Zrotation
			JOINT Spine1_split
			{
				OFFSET -0.002067 5.816869 0.032633
				CHANNELS 3 Xrotation Yrotation Zrotation
				JOINT Spine2
				{
					OFFSET -0.002067 5.816869 0.032633
					CHANNELS 3 Xrotation Yrotation Zrotation
					JOINT Neck
					{
						OFFSET -0.003700 21.199493 -0.826900
						CHANNELS 3 Xrotation Yrotation Zrotation
						JOINT Head
						{
							OFFSET 0.000000 20.442200 4.834800
							CHANNELS 3 Xrotation Yrotation Zrotation
							JOINT HeadTop_End
							{
								OFFSET 0.000000 34.668396 4.968400
								CHANNELS 3 Xrotation Yrotation Zrotation
								End Site
								{
									OFFSET 0.000000 0.000000 0.000000
								}
							}
						}
					}
					JOINT LeftShoulder
					{
						OFFSET 3.288150 8.794197 -1.372250
						CHANNELS 3 Xrotation Yrotation Zrotation
						JOINT LeftShoulder_split
						{
							OFFSET 3.288150 8.794197 -1.372250
							CHANNELS 3 Xrotation Yrotation Zrotation
							JOINT LeftArm
							{
								OFFSET 11.953299 -2.279007 -0.146200
								CHANNELS 3 Xrotation Yrotation Zrotation
								JOINT LeftForeArm
								{
									OFFSET 18.448900 0.000000 0.000000
									CHANNELS 3 Xrotation Yrotation Zrotation
									JOINT LeftHand
									{
										OFFSET 29.527798 0.000000 0.000000
										CHANNELS 3 Xrotation Yrotation Zrotation
										JOINT LeftHandThumb1
										{
											OFFSET 10.739754 -2.369614 9.225399
											CHANNELS 3 Xrotation Yrotation Zrotation
											JOINT LeftHandThumb2
											{
												OFFSET 4.926170 -2.844131 2.844125
												CHANNELS 3 Xrotation Yrotation Zrotation
												JOINT LeftHandThumb3
												{
													OFFSET 4.614891 -2.664413 2.664409
													CHANNELS 3 Xrotation Yrotation Zrotation
													JOINT LeftHandThumb4
													{
														OFFSET 4.432465 -2.559082 2.559083
														CHANNELS 3 Xrotation Yrotation Zrotation
														End Site
														{
															OFFSET 0.000000 0.000000 0.000000
														}
													}
												}
											}
										}
										JOINT LeftHandIndex1
										{
											OFFSET 26.467674 0.187653 6.405298
											CHANNELS 3 Xrotation Yrotation Zrotation
											JOINT LeftHandIndex2
											{
												OFFSET 8.792900 0.000000 0.000000
												CHANNELS 3 Xrotation Yrotation Zrotation
												JOINT LeftHandIndex3
												{
													OFFSET 10.075203 0.000000 0.000000
													CHANNELS 3 Xrotation Yrotation Zrotation
													End Site
													{
														OFFSET 0.000000 0.000000 0.000000
													}
												}
											}
										}
										JOINT LeftHandMiddle1
										{
											OFFSET 25.764404 0.000000 0.000000
											CHANNELS 3 Xrotation Yrotation Zrotation
											JOINT LeftHandMiddle2
											{
												OFFSET 9.393974 0.000000 0.000000
												CHANNELS 3 Xrotation Yrotation Zrotation
												JOINT LeftHandMiddle3
												{
													OFFSET 10.771950 0.000000 0.000000
													CHANNELS 3 Xrotation Yrotation Zrotation
													End Site
													{
														OFFSET 0.000000 0.000000 0.000000
													}
												}
											}
										}
										JOINT LeftHandRing1
										{
											OFFSET 24.660927 0.144547 -6.225808
											CHANNELS 3 Xrotation Yrotation Zrotation
											JOINT LeftHandRing2
											{
												OFFSET 9.393799 0.000000 0.000000
												CHANNELS 3 Xrotation Yrotation Zrotation
												JOINT LeftHandRing3
												{
													OFFSET 9.928497 0.000000 0.000000
													CHANNELS 3 Xrotation Yrotation Zrotation
													End Site
													{
														OFFSET 0.000000 0.000000 0.000000
													}
												}
											}
										}
										JOINT LeftHandPinky1
										{
											OFFSET 23.655350 0.125290 -12.815412
											CHANNELS 3 Xrotation Yrotation Zrotation
											JOINT LeftHandPinky2
											{
												OFFSET 8.425102 0.000000 0.000000
												CHANNELS 3 Xrotation Yrotation Zrotation
												JOINT LeftHandPinky3
												{
													OFFSET 8.147003 0.000000 0.000000
													CHANNELS 3 Xrotation Yrotation Zrotation
													End Site
													{
														OFFSET 0.000000 0.000000 0.000000
													}
												}
											}
										}
									}
								}
							}
						}
					}
					JOINT RightShoulder
					{
						OFFSET -3.249400 8.794197 -1.372250
						CHANNELS 3 Xrotation Yrotation Zrotation
						JOINT RightShoulder_split
						{
							OFFSET -3.249400 8.794197 -1.372250
							CHANNELS 3 Xrotation Yrotation Zrotation
							JOINT RightArm
							{
								OFFSET -11.953299 -2.279007 -0.146200
								CHANNELS 3 Xrotation Yrotation Zrotation
								JOINT RightForeArm
								{
									OFFSET -18.448900 0.000000 0.000000
									CHANNELS 3 Xrotation Yrotation Zrotation
									JOINT RightHand
									{
										OFFSET -29.527802 0.000000 0.000000
										CHANNELS 3 Xrotation Yrotation Zrotation
										JOINT RightHandThumb1
										{
											OFFSET -10.739754 -2.369614 9.225399
											CHANNELS 3 Xrotation Yrotation Zrotation
											JOINT RightHandThumb2
											{
												OFFSET -4.926170 -2.844131 2.844125
												CHANNELS 3 Xrotation Yrotation Zrotation
												JOINT RightHandThumb3
												{
													OFFSET -4.614891 -2.664413 2.664409
													CHANNELS 3 Xrotation Yrotation Zrotation
													JOINT RightHandThumb4
													{
														OFFSET -4.432465 -2.559082 2.559083
														CHANNELS 3 Xrotation Yrotation Zrotation
														End Site
														{
															OFFSET 0.000000 0.000000 0.000000
														}
													}
												}
											}
										}
										JOINT RightHandIndex1
										{
											OFFSET -26.467674 0.187653 6.405298
											CHANNELS 3 Xrotation Yrotation Zrotation
											JOINT RightHandIndex2
											{
												OFFSET -8.792900 0.000000 0.000000
												CHANNELS 3 Xrotation Yrotation Zrotation
												JOINT RightHandIndex3
												{
													OFFSET -10.075203 0.000000 0.000000
													CHANNELS 3 Xrotation Yrotation Zrotation
													End Site
													{
														OFFSET 0.000000 0.000000 0.000000
													}
												}
											}
										}
										JOINT RightHandMiddle1
										{
											OFFSET -25.764404 0.000000 0.000000
											CHANNELS 3 Xrotation Yrotation Zrotation
											JOINT RightHandMiddle2
											{
												OFFSET -9.393974 0.000000 0.000000
												CHANNELS 3 Xrotation Yrotation Zrotation
												JOINT RightHandMiddle3
												{
													OFFSET -10.771950 0.000000 0.000000
													CHANNELS 3 Xrotation Yrotation Zrotation
													End Site
													{
														OFFSET 0.000000 0.000000 0.000000
													}
												}
											}
										}
										JOINT RightHandRing1
										{
											OFFSET -24.660927 0.144547 -6.225808
											CHANNELS 3 Xrotation Yrotation Zrotation
											JOINT RightHandRing2
											{
												OFFSET -9.393799 0.000000 0.000000
												CHANNELS 3 Xrotation Yrotation Zrotation
												JOINT RightHandRing3
												{
													OFFSET -9.928497 0.000000 0.000000
													CHANNELS 3 Xrotation Yrotation Zrotation
													End Site
													{
														OFFSET 0.000000 0.000000 0.000000
													}
												}
											}
										}
										JOINT RightHandPinky1
										{
											OFFSET -23.655350 0.125290 -12.815412
											CHANNELS 3 Xrotation Yrotation Zrotation
											JOINT RightHandPinky2
											{
												OFFSET -8.425102 0.000000 0.000000
												CHANNELS 3 Xrotation Yrotation Zrotation
												JOINT RightHandPinky3
												{
													OFFSET -8.147003 0.000000 0.000000
													CHANNELS 3 Xrotation Yrotation Zrotation
													End Site
													{
														OFFSET 0.000000 0.000000 0.000000
													}
												}
											}
										}
									}
								}
							}
						}
					}
				}
			}
		}
	}
	JOINT LeftUpLeg
	{
		OFFSET 11.394100 -6.187798 -0.413800
		CHANNELS 3 Xrotation Yrotation Zrotation
		JOINT LeftLeg
		{
			OFFSET 0.430247 -32.302673 3.732800
			CHANNELS 3 Xrotation Yrotation Zrotation
			JOINT LeftFoot
			{
				OFFSET -0.430247 -48.264931 -6.423300
				CHANNELS 3 Xrotation Yrotation Zrotation
				JOINT LeftToeBase
				{
					OFFSET 4.230900 -16.068199 23.438400
					CHANNELS 3 Xrotation Yrotation Zrotation
					JOINT LeftToe_End
					{
						OFFSET 4.510700 0.695400 19.974600
						CHANNELS 3 Xrotation Yrotation Zrotation
						End Site
						{
							OFFSET 0.000000 0.000000 0.000000
						}
					}
				}
			}
		}
	}
	JOINT RightUpLeg
	{
		OFFSET -11.333700 -6.187798 -0.413800
		CHANNELS 3 Xrotation Yrotation Zrotation
		JOINT RightLeg
		{
			OFFSET -0.430392 -32.302628 3.733000
			CHANNELS 3 Xrotation Yrotation Zrotation
			JOINT RightFoot
			{
				OFFSET 0.430392 -48.264973 -6.423500
				CHANNELS 3 Xrotation Yrotation Zrotation
				JOINT RightToeBase
				{
					OFFSET -4.230900 -16.068199 23.438400
					CHANNELS 3 Xrotation Yrotation Zrotation
					JOINT RightToe_End
					{
						OFFSET -4.510700 0.695400 19.974600
						CHANNELS 3 Xrotation Yrotation Zrotation
						End Site
						{
							OFFSET 0.000000 0.000000 0.000000
						}
					}
				}
			}
		}
	}
}
MOTION
Frames: 6
Frame Time: 0.016667
-0.010485 110.244919 -3.239235 -89.650946 0.347649 0.822780 1.063754 -1.172274 0.843930 -0.317535 -2.434544 0.230484 0.000000 0.000000 0.000000 -0.303405 -2.418347 0.331942 -10.007522 0.102137 -1.808070 8.692137 -2.170252 1.510696 -0.000000 0.000000 -0.000000 0.422235 -0.103001 -4.005443 0.000000 0.000000 0.000000 35.263672 -28.378555 -54.538401 -0.000046 -80.454185 -0.000044 -13.958249 -3.109591 -10.085405 6.590534 -4.958662 16.122653 7.178848 21.567325 2.147309 -3.980813 36.507511 21.976012 -0.000000 0.000003 0.000000 0.659525 4.932353 -26.024462 0.169779 1.401621 -13.813544 0.000003 0.000000 -0.000001 1.376922 6.461965 -24.994179 0.169881 1.401961 -13.817116 0.000002 0.000003 0.000001 2.098720 8.644304 -21.209674 0.169788 1.401618 -13.813549 0.000000 0.000001 -0.000001 2.123422 10.735870 -14.817568 0.167504 1.392248 -13.719337 -0.000000 -0.000000 0.000001 0.646687 1.792567 13.881981 0.000000 0.000000 0.000000 39.542943 30.913354 33.651659 0.000190 101.347809 -0.000175 -34.905350 -9.303374 11.136933 -13.111102 7.817360 -0.096458 7.918249 -27.751655 -3.100780 -2.785633 -37.960720 -21.297262 -0.000000 0.000000 0.000000 2.082847 12.897803 37.347440 0.497042 -2.095309 26.687149 0.000003 -0.000000 -0.000000 -4.321319 1.650216 38.533482 0.529963 -2.159509 27.573976 0.000001 -0.000000 -0.000002 -1.394398 -1.262393 31.742000 0.254164 -1.518989 18.997007 -0.000000 -0.000000 0.000000 0.189699 -3.422247 14.147218 0.162226 -1.219719 15.150961 0.000002 0.000001 0.000000 -5.938814 17.094102 19.425854 4.625843 7.592344 0.307302 29.944881 29.308598 -30.969416 -4.397736 -0.000018 0.000002 0.000001 0.000001 -0.000000 -5.587021 -16.799858 -12.452335 3.805783 -7.590431 -7.584170 38.977216 -29.645815 30.174126 -9.125963 -0.000018 -0.000008 0.000001 0.000001 -0.000001 
-0.024534 110.242416 -3.207001 -89.671778 0.440695 0.958253 1.042163 -1.132349 0.841233 -0.418968 -2.373051 0.195801 0.000000 0.000000 0.000000 -0.397363 -2.369105 0.309557 -9.992517 0.068522 -1.711925 8.739660 -2.317847 1.567080 0.000000 -0.000000 -0.000000 0.461625 -0.727168 -4.005713 0.000000 0.000000 0.000000 35.651665 -28.307483 -54.248310 0.000042 -80.590071 0.000036 -14.391682 -3.136449 -9.670767 6.590534 -4.958663 16.122658 7.178847 21.567320 2.147309 -3.980811 36.507505 21.976009 0.000001 0.000001 0.000003 0.659524 4.932352 -26.024465 0.169780 1.401616 -13.813544 0.000000 0.000000 -0.000001 1.376920 6.461964 -24.994183 0.169881 1.401963 -13.817115 0.000000 -0.000002 -0.000000 2.098721 8.644301 -21.209674 0.169789 1.401619 -13.813546 -0.000000 -0.000001 0.000001 2.123421 10.735874 -14.817569 0.167506 1.392252 -13.719338 -0.000001 0.000002 0.000001 0.607863 1.777500 13.847702 0.000000 0.000000 0.000000 37.902595 30.020041 36.590061 -0.000123 101.247152 0.000122 -36.596864 -9.378172 11.050566 -12.879203 8.193470 0.480506 7.914301 -27.716991 -3.098590 -2.799431 -37.469612 -21.193776 0.000004 -0.000001 -0.000002 2.149271 12.733851 36.856862 0.492754 -2.086755 26.569572 0.000001 -0.000001 0.000001 -4.264401 1.622379 38.347342 0.526201 -2.152304 27.474089 0.000001 -0.000000 0.000001 -1.380207 -1.295199 31.813344 0.261193 -1.539248 19.260468 0.000000 0.000000 0.000000 0.197461 -3.452544 14.531509 0.170501 -1.249871 15.534982 0.000002 -0.000000 -0.000000 -5.964346 16.906443 19.269743 4.781266 7.474294 0.356359 29.939379 29.314899 -30.911203 -4.907022 -0.000011 0.000004 0.000000 0.000000 -0.000000 -5.608544 -16.932843 -12.743081 3.912144 -7.267958 -7.318136 39.357582 -29.655592 30.181192 -9.012618 0.000003 0.000002 0.000001 -0.000001 0.000000 
-0.000206 110.238205 -3.198799 -89.707759 0.540155 1.085012 1.020931 -1.093607 0.844112 -0.521705 -2.314062 0.161337 0.000000 0.000000 0.000000 -0.492039 -2.319870 0.287191 -9.946361 0.033120 -1.614218 8.871006 -2.467348 1.625963 0.000000 0.000000 -0.000000 0.507664 -1.375824 -4.005944 0.000000 0.000000 0.000000 35.944506 -28.114964 -54.137090 0.000233 -80.729257 0.000235 -14.694916 -3.140315 -9.355474 6.590534 -4.958663 16.122658 7.178852 21.567320 2.147314 -3.980807 36.507511 21.976004 -0.000002 0.000001 0.000001 0.659526 4.932351 -26.024467 0.169779 1.401619 -13.813544 0.000003 -0.000000 -0.000001 1.376925 6.461960 -24.994179 0.169881 1.401960 -13.817114 -0.000001 -0.000000 -0.000001 2.098720 8.644299 -21.209674 0.169786 1.401610 -13.813550 -0.000001 0.000000 -0.000000 2.123423 10.735871 -14.817568 0.167504 1.392251 -13.719337 0.000002 0.000001 0.000002 0.569203 1.762515 13.812979 0.000000 0.000000 0.000000 35.720701 29.082099 39.718585 0.000205 100.780124 -0.000186 -38.395799 -9.656051 11.081955 -12.219787 9.247321 2.040354 7.903565 -27.622900 -3.092645 -2.841990 -36.136711 -20.915405 0.000001 0.000001 0.000001 2.313688 12.270300 35.528131 0.481193 -2.063503 26.250427 0.000001 -0.000000 -0.000001 -4.110322 1.543891 37.842335 0.516073 -2.132712 27.202996 -0.000002 -0.000000 -0.000001 -1.341794 -1.387162 32.035834 0.281869 -1.597176 20.016006 0.000003 -0.000000 0.000001 0.220579 -3.538241 15.622325 0.195095 -1.335137 16.624921 0.000002 0.000000 0.000000 -5.981770 16.704109 19.101654 4.978164 7.356353 0.406313 29.956721 29.304749 -30.826030 -5.419499 0.000011 0.000005 0.000000 0.000002 -0.000000 -5.588137 -17.073960 -13.058150 3.853361 -6.997849 -7.047689 40.176115 -29.673333 30.217293 -8.902596 0.000006 -0.000020 0.000002 -0.000000 -0.000000 
0.031543 110.232658 -3.191490 -89.747484 0.641341 1.210732 0.999660 -1.054984 0.844826 -0.624395 -2.255073 0.126878 0.000000 0.000000 0.000000 -0.586712 -2.270637 0.264827 -9.868834 -0.003010 -1.517640 9.081823 -2.617590 1.685801 0.000000 0.000001 0.000000 0.565014 -2.038753 -3.968433 0.000000 0.000000 0.000000 36.227839 -27.974496 -54.031212 0.000043 -80.847822 0.000053 -15.031141 -3.167388 -9.004460 6.590532 -4.958662 16.122655 7.178843 21.567321 2.147309 -3.980810 36.507508 21.976004 0.000000 0.000001 -0.000001 0.659527 4.932348 -26.024464 0.169776 1.401621 -13.813544 0.000002 -0.000001 0.000000 1.376920 6.461960 -24.994181 0.169881 1.401966 -13.817114 -0.000001 -0.000001 -0.000001 2.098721 8.644301 -21.209677 0.169790 1.401609 -13.813549 0.000001 -0.000000 -0.000001 2.123418 10.735871 -14.817563 0.167501 1.392250 -13.719337 -0.000001 -0.000000 0.000001 0.532914 1.739981 13.779530 0.000000 0.000000 0.000000 33.134569 28.142908 42.894534 0.000047 99.988444 -0.000023 -40.318730 -10.120798 11.119178 -11.190754 10.888578 4.309754 7.887745 -27.484220 -3.083859 -2.917729 -34.172789 -20.511237 0.000000 0.000001 -0.000001 2.511579 11.547073 33.578125 0.464412 -2.029120 25.780146 -0.000001 -0.000002 -0.000003 -3.884907 1.421004 37.098698 0.501315 -2.103755 26.803517 -0.000000 -0.000001 -0.000002 -1.284683 -1.528359 32.422252 0.316145 -1.688248 21.211453 -0.000001 0.000000 0.000001 0.259983 -3.671166 17.326563 0.236727 -1.467369 18.327713 0.000001 -0.000000 -0.000000 -6.003842 16.495493 18.931486 5.193562 7.233993 0.455849 29.976187 29.294200 -30.691025 -5.936453 0.000007 -0.000020 0.000000 -0.000001 0.000000 -5.567596 -17.214841 -13.379305 3.752986 -6.759366 -6.780322 41.075217 -29.690771 30.259592 -8.794716 -0.000002 -0.000004 -0.000000 -0.000001 0.000000 
0.085221 110.227730 -3.182663 -89.779995 0.739985 1.331992 0.978133 -1.015928 0.846714 -0.725585 -2.193579 0.092203 0.000000 0.000000 0.000000 -0.680580 -2.221394 0.242446 -9.759804 -0.038815 -1.424881 9.367748 -2.767413 1.745067 -0.000000 -0.000000 0.000000 0.624279 -2.705506 -3.943882 0.000000 0.000000 0.000000 36.534682 -27.843700 -53.883000 0.000017 -80.975875 0.000035 -15.391758 -3.197137 -8.631278 6.590533 -4.958661 16.122658 7.178849 21.567323 2.147314 -3.980812 36.507508 21.976004 -0.000001 0.000001 0.000002 0.659526 4.932346 -26.024465 0.169779 1.401619 -13.813540 0.000000 0.000000 -0.000000 1.376924 6.461963 -24.994186 0.169881 1.401959 -13.817118 -0.000001 0.000003 0.000001 2.098721 8.644297 -21.209677 0.169788 1.401613 -13.813551 0.000001 0.000001 0.000001 2.123421 10.735871 -14.817566 0.167505 1.392251 -13.719338 0.000001 -0.000005 -0.000002 0.504911 1.691344 13.749589 0.000000 0.000000 0.000000 30.303411 27.254041 45.899349 0.000313 98.894808 -0.000317 -42.437424 -10.685831 11.098024 -9.853341 13.032299 7.008835 7.868528 -27.315836 -3.073125 -3.029363 -31.788698 -20.028232 0.000004 -0.000000 -0.000001 2.676067 10.608305 31.222731 0.444396 -1.987186 25.209101 0.000004 -0.000000 -0.000001 -3.614144 1.260207 36.196755 0.483648 -2.068467 26.318495 -0.000001 -0.000000 -0.000000 -1.213852 -1.708733 32.985340 0.364428 -1.807709 22.794605 0.000001 -0.000001 0.000000 0.317336 -3.842785 19.551256 0.296954 -1.637968 20.550282 0.000001 -0.000000 -0.000000 -6.052883 16.284126 18.757723 5.452794 7.114373 0.506062 30.007466 29.280427 -30.548195 -6.413014 0.000002 -0.000031 -0.000000 0.000000 0.000000 -5.591928 -17.344260 -13.715210 3.617858 -6.597728 -6.521214 42.071636 -29.705077 30.313817 -8.688610 0.000017 0.000008 -0.000000 0.000002 0.000000 
0.137838 110.226295 -3.172012 -89.794503 0.830133 1.456952 0.955832 -0.975446 0.841492 -0.823873 -2.127080 0.057099 0.000000 0.000000 0.000000 -0.772907 -2.172134 0.220032 -9.619164 -0.073226 -1.338634 9.724345 -2.915640 1.802239 -0.000000 0.000001 -0.000000 0.683091 -3.365873 -3.937141 0.000000 0.000000 0.000000 36.836662 -27.689913 -53.735441 -0.000586 -81.112731 -0.000565 -15.732875 -3.217252 -8.278774 6.590533 -4.958667 16.122655 7.178848 21.567320 2.147310 -3.980813 36.507511 21.976000 0.000000 -0.000000 -0.000003 0.659525 4.932346 -26.024462 0.169777 1.401624 -13.813541 0.000000 -0.000000 0.000001 1.376921 6.461959 -24.994179 0.169879 1.401963 -13.817118 -0.000000 0.000000 -0.000000 2.098722 8.644297 -21.209681 0.169788 1.401613 -13.813550 0.000000 0.000000 0.000000 2.123420 10.735867 -14.817566 0.167503 1.392255 -13.719336 0.000002 -0.000001 0.000001 0.496272 1.581825 13.727719 0.000000 0.000000 0.000000 27.476917 26.672100 48.315577 0.000457 97.501285 -0.000472 -44.998611 -11.127385 10.824178 -8.268720 15.575645 9.868357 7.847625 -27.132599 -3.061406 -3.173956 -29.195220 -19.509839 0.000002 0.000001 -0.000001 2.752560 9.507583 28.673073 0.423100 -1.941323 24.587716 -0.000000 -0.000003 0.000000 -3.323100 1.070066 35.216616 0.464776 -2.029890 25.790764 0.000001 -0.000003 -0.000002 -1.133877 -1.918262 33.737795 0.427364 -1.950610 24.713342 -0.000001 -0.000000 0.000001 0.394332 -4.044246 22.203506 0.377323 -1.838053 23.199677 0.000002 0.000000 0.000000 -6.107665 16.088794 18.574059 5.685803 6.991276 0.555058 30.022766 29.270677 -30.408719 -6.815111 0.000005 0.000003 0.000001 0.000001 -0.000000 -5.655869 -17.466899 -14.039114 3.628249 -6.390252 -6.283496 42.370792 -29.716968 30.348713 -8.582851 -0.000035 0.000016 0.000000 -0.000001 -0.000000 
